<?xml version="1.0" encoding="UTF-8"?>
<svg xmlns="http://www.w3.org/2000/svg" xmlns:xlink="http://www.w3.org/1999/xlink" width="135px" height="50px" viewBox="0 0 135 50" version="1.1">
<defs>
<clipPath id="clip1">
  <path d="M 88 2 L 118 2 L 118 31 L 88 31 Z M 88 2 "/>
</clipPath>
<clipPath id="clip2">
  <path d="M 114.890625 7.296875 C 110.695312 1.730469 101.800781 1.355469 95.027344 6.453125 C 88.253906 11.554688 86.164062 20.199219 90.363281 25.765625 C 94.558594 31.328125 103.453125 31.703125 110.226562 26.605469 C 117 21.503906 119.089844 12.859375 114.890625 7.296875 Z M 114.890625 7.296875 "/>
</clipPath>
<clipPath id="clip3">
  <path d="M 73.089844 13.769531 L 108.089844 -12.582031 L 132.3125 19.527344 L 97.308594 45.882812 Z M 73.089844 13.769531 "/>
</clipPath>
<clipPath id="clip4">
  <path d="M 114.890625 7.296875 C 110.695312 1.730469 101.800781 1.355469 95.027344 6.453125 C 88.253906 11.554688 86.164062 20.199219 90.363281 25.765625 C 94.558594 31.328125 103.453125 31.703125 110.226562 26.605469 C 117 21.503906 119.089844 12.859375 114.890625 7.296875 Z M 114.890625 7.296875 "/>
</clipPath>
<clipPath id="clip5">
  <path d="M 82.835938 15.914062 L 107.347656 -2.539062 L 122.558594 17.632812 L 98.046875 36.085938 Z M 82.835938 15.914062 "/>
</clipPath>
<clipPath id="clip6">
  <path d="M 88 2 L 118 2 L 118 31 L 88 31 Z M 88 2 "/>
</clipPath>
<clipPath id="clip7">
  <path d="M 114.890625 7.296875 C 110.695312 1.730469 101.800781 1.355469 95.027344 6.453125 C 88.253906 11.554688 86.164062 20.199219 90.363281 25.765625 C 94.558594 31.328125 103.453125 31.703125 110.226562 26.605469 C 117 21.503906 119.089844 12.859375 114.890625 7.296875 Z M 114.890625 7.296875 "/>
</clipPath>
<clipPath id="clip8">
  <path d="M 73.089844 13.769531 L 108.089844 -12.582031 L 132.3125 19.527344 L 97.308594 45.882812 Z M 73.089844 13.769531 "/>
</clipPath>
<clipPath id="clip9">
  <path d="M 114.890625 7.296875 C 110.695312 1.730469 101.800781 1.355469 95.027344 6.453125 C 88.253906 11.554688 86.164062 20.199219 90.363281 25.765625 C 94.558594 31.328125 103.453125 31.703125 110.226562 26.605469 C 117 21.503906 119.089844 12.859375 114.890625 7.296875 Z M 114.890625 7.296875 "/>
</clipPath>
<clipPath id="clip10">
  <path d="M 86.328125 28.027344 L 94.789062 -1.445312 L 119.085938 5.515625 L 110.628906 34.988281 Z M 86.328125 28.027344 "/>
</clipPath>
<clipPath id="clip11">
  <path d="M 88 2 L 118 2 L 118 31 L 88 31 Z M 88 2 "/>
</clipPath>
<clipPath id="clip12">
  <path d="M 114.890625 7.296875 C 110.695312 1.730469 101.800781 1.355469 95.027344 6.453125 C 88.253906 11.554688 86.164062 20.199219 90.363281 25.765625 C 94.558594 31.328125 103.453125 31.703125 110.226562 26.605469 C 117 21.503906 119.089844 12.859375 114.890625 7.296875 Z M 114.890625 7.296875 "/>
</clipPath>
<clipPath id="clip13">
  <path d="M 73.089844 13.769531 L 108.089844 -12.582031 L 132.3125 19.527344 L 97.308594 45.882812 Z M 73.089844 13.769531 "/>
</clipPath>
<clipPath id="clip14">
  <path d="M 114.890625 7.296875 C 110.695312 1.730469 101.800781 1.355469 95.027344 6.453125 C 88.253906 11.554688 86.164062 20.199219 90.363281 25.765625 C 94.558594 31.328125 103.453125 31.703125 110.226562 26.605469 C 117 21.503906 119.089844 12.859375 114.890625 7.296875 Z M 114.890625 7.296875 "/>
</clipPath>
<clipPath id="clip15">
  <path d="M 82.835938 15.914062 L 107.347656 -2.539062 L 122.558594 17.632812 L 98.046875 36.085938 Z M 82.835938 15.914062 "/>
</clipPath>
<clipPath id="clip16">
  <path d="M 88 2 L 118 2 L 118 31 L 88 31 Z M 88 2 "/>
</clipPath>
<clipPath id="clip17">
  <path d="M 114.890625 7.296875 C 110.695312 1.730469 101.800781 1.355469 95.027344 6.453125 C 88.253906 11.554688 86.164062 20.199219 90.363281 25.765625 C 94.558594 31.328125 103.453125 31.703125 110.226562 26.605469 C 117 21.503906 119.089844 12.859375 114.890625 7.296875 Z M 114.890625 7.296875 "/>
</clipPath>
<clipPath id="clip18">
  <path d="M 73.089844 13.769531 L 108.089844 -12.582031 L 132.3125 19.527344 L 97.308594 45.882812 Z M 73.089844 13.769531 "/>
</clipPath>
<clipPath id="clip19">
  <path d="M 114.890625 7.296875 C 110.695312 1.730469 101.800781 1.355469 95.027344 6.453125 C 88.253906 11.554688 86.164062 20.199219 90.363281 25.765625 C 94.558594 31.328125 103.453125 31.703125 110.226562 26.605469 C 117 21.503906 119.089844 12.859375 114.890625 7.296875 Z M 114.890625 7.296875 "/>
</clipPath>
<clipPath id="clip20">
  <path d="M 86.328125 28.027344 L 94.789062 -1.445312 L 119.085938 5.515625 L 110.628906 34.988281 Z M 86.328125 28.027344 "/>
</clipPath>
<clipPath id="clip21">
  <path d="M 88 2 L 118 2 L 118 31 L 88 31 Z M 88 2 "/>
</clipPath>
<clipPath id="clip22">
  <path d="M 114.890625 7.296875 C 110.695312 1.730469 101.800781 1.355469 95.027344 6.453125 C 88.253906 11.554688 86.164062 20.199219 90.363281 25.765625 C 94.558594 31.328125 103.453125 31.703125 110.226562 26.605469 C 117 21.503906 119.089844 12.859375 114.890625 7.296875 Z M 114.890625 7.296875 "/>
</clipPath>
<clipPath id="clip23">
  <path d="M 73.089844 13.769531 L 108.089844 -12.582031 L 132.3125 19.527344 L 97.308594 45.882812 Z M 73.089844 13.769531 "/>
</clipPath>
<clipPath id="clip24">
  <path d="M 114.890625 7.296875 C 110.695312 1.730469 101.800781 1.355469 95.027344 6.453125 C 88.253906 11.554688 86.164062 20.199219 90.363281 25.765625 C 94.558594 31.328125 103.453125 31.703125 110.226562 26.605469 C 117 21.503906 119.089844 12.859375 114.890625 7.296875 Z M 114.890625 7.296875 "/>
</clipPath>
<clipPath id="clip25">
  <path d="M 88 2 L 118 2 L 118 31 L 88 31 Z M 88 2 "/>
</clipPath>
<clipPath id="clip26">
  <path d="M 114.890625 7.296875 C 110.695312 1.730469 101.800781 1.355469 95.027344 6.453125 C 88.253906 11.554688 86.164062 20.199219 90.363281 25.765625 C 94.558594 31.328125 103.453125 31.703125 110.226562 26.605469 C 117 21.503906 119.089844 12.859375 114.890625 7.296875 Z M 114.890625 7.296875 "/>
</clipPath>
<clipPath id="clip27">
  <path d="M 73.089844 13.769531 L 108.089844 -12.582031 L 132.3125 19.527344 L 97.308594 45.882812 Z M 73.089844 13.769531 "/>
</clipPath>
<clipPath id="clip28">
  <path d="M 95 8 L 111 8 L 111 25 L 95 25 Z M 95 8 "/>
</clipPath>
<clipPath id="clip29">
  <path d="M 114.890625 7.296875 C 110.695312 1.730469 101.800781 1.355469 95.027344 6.453125 C 88.253906 11.554688 86.164062 20.199219 90.363281 25.765625 C 94.558594 31.328125 103.453125 31.703125 110.226562 26.605469 C 117 21.503906 119.089844 12.859375 114.890625 7.296875 Z M 114.890625 7.296875 "/>
</clipPath>
<clipPath id="clip30">
  <path d="M 73.089844 13.769531 L 108.089844 -12.582031 L 132.3125 19.527344 L 97.308594 45.882812 Z M 73.089844 13.769531 "/>
</clipPath>
</defs>
<g id="surface1">
<path style=" stroke:none;fill-rule:nonzero;fill:rgb(0%,0%,0%);fill-opacity:1;" d="M 69.695312 16.5625 L 76.105469 16.148438 C 76.25 17.195312 76.519531 17.972656 76.957031 18.535156 C 77.664062 19.410156 78.640625 19.847656 79.933594 19.847656 C 80.882812 19.847656 81.636719 19.628906 82.148438 19.167969 C 82.636719 18.800781 82.929688 18.21875 82.929688 17.609375 C 82.929688 17.023438 82.664062 16.464844 82.199219 16.097656 C 81.710938 15.660156 80.566406 15.222656 78.761719 14.832031 C 75.8125 14.175781 73.691406 13.296875 72.449219 12.175781 C 71.207031 11.128906 70.5 9.597656 70.546875 7.964844 C 70.546875 6.84375 70.886719 5.722656 71.523438 4.796875 C 72.253906 3.75 73.253906 2.921875 74.449219 2.460938 C 75.738281 1.898438 77.542969 1.605469 79.808594 1.605469 C 82.589844 1.605469 84.710938 2.117188 86.171875 3.167969 C 87.636719 4.1875 88.511719 5.84375 88.78125 8.109375 L 82.441406 8.476562 C 82.273438 7.5 81.929688 6.796875 81.371094 6.332031 C 80.808594 5.871094 80.078125 5.648438 79.128906 5.648438 C 78.347656 5.648438 77.761719 5.820312 77.371094 6.136719 C 77.007812 6.429688 76.761719 6.867188 76.789062 7.355469 C 76.789062 7.71875 76.984375 8.0625 77.273438 8.28125 C 77.59375 8.574219 78.347656 8.839844 79.542969 9.085938 C 82.492188 9.71875 84.589844 10.351562 85.878906 11.007812 C 87.171875 11.664062 88.097656 12.46875 88.660156 13.417969 C 89.242188 14.394531 89.535156 15.515625 89.511719 16.660156 C 89.511719 18.023438 89.121094 19.386719 88.34375 20.53125 C 87.539062 21.722656 86.417969 22.648438 85.101562 23.210938 C 83.710938 23.820312 81.957031 24.136719 79.859375 24.136719 C 76.152344 24.136719 73.59375 23.429688 72.15625 21.992188 C 70.71875 20.554688 69.863281 18.753906 69.695312 16.5625 Z M 1.660156 23.769531 L 1.660156 1.996094 L 12.894531 1.996094 C 14.96875 1.996094 16.578125 2.167969 17.675781 2.53125 C 18.746094 2.875 19.699219 3.582031 20.332031 4.53125 C 21.039062 5.578125 21.378906 6.796875 21.355469 8.0625 C 21.429688 10.203125 20.332031 12.25 18.453125 13.320312 C 17.722656 13.734375 16.917969 14.027344 16.089844 14.175781 C 16.699219 14.34375 17.308594 14.636719 17.84375 14.976562 C 18.257812 15.320312 18.601562 15.707031 18.917969 16.121094 C 19.28125 16.535156 19.601562 17 19.867188 17.488281 L 23.132812 23.792969 L 15.480469 23.792969 L 11.871094 17.097656 C 11.410156 16.246094 11.019531 15.683594 10.652344 15.417969 C 10.167969 15.074219 9.582031 14.90625 8.996094 14.90625 L 8.410156 14.90625 L 8.410156 23.746094 L 1.660156 23.746094 Z M 8.410156 10.8125 L 11.261719 10.8125 C 11.871094 10.765625 12.457031 10.667969 13.042969 10.519531 C 13.480469 10.449219 13.871094 10.203125 14.140625 9.839844 C 14.796875 8.960938 14.699219 7.71875 13.894531 6.964844 C 13.457031 6.601562 12.605469 6.40625 11.386719 6.40625 L 8.410156 6.40625 Z M 0.121094 42.425781 L 6.535156 42.011719 C 6.679688 43.058594 6.949219 43.839844 7.386719 44.398438 C 8.070312 45.273438 9.070312 45.738281 10.359375 45.738281 C 11.3125 45.738281 12.066406 45.519531 12.578125 45.054688 C 13.066406 44.667969 13.359375 44.105469 13.359375 43.496094 C 13.359375 42.914062 13.089844 42.351562 12.628906 41.988281 C 12.140625 41.550781 10.996094 41.109375 9.167969 40.722656 C 6.21875 40.0625 4.097656 39.1875 2.851562 38.066406 C 1.609375 37.019531 0.902344 35.484375 0.953125 33.851562 C 0.953125 32.734375 1.292969 31.613281 1.925781 30.6875 C 2.65625 29.640625 3.65625 28.8125 4.851562 28.347656 C 6.144531 27.789062 7.949219 27.496094 10.214844 27.496094 C 12.992188 27.496094 15.113281 28.007812 16.578125 29.054688 C 18.039062 30.101562 18.894531 31.734375 19.160156 34 L 12.824219 34.363281 C 12.652344 33.390625 12.3125 32.683594 11.75 32.222656 C 11.214844 31.757812 10.457031 31.539062 9.507812 31.5625 C 8.726562 31.5625 8.144531 31.734375 7.753906 32.074219 C 7.363281 32.367188 7.144531 32.804688 7.167969 33.292969 C 7.167969 33.65625 7.363281 34 7.65625 34.21875 C 7.972656 34.511719 8.726562 34.777344 9.921875 35.023438 C 12.871094 35.65625 14.96875 36.289062 16.261719 36.945312 C 17.550781 37.601562 18.480469 38.40625 19.039062 39.355469 C 19.625 40.332031 19.917969 41.453125 19.917969 42.570312 C 19.917969 43.9375 19.503906 45.273438 18.746094 46.417969 C 17.941406 47.613281 16.820312 48.539062 15.503906 49.097656 C 14.113281 49.707031 12.359375 50.023438 10.265625 50.023438 C 6.558594 50.023438 4 49.316406 2.5625 47.882812 C 1.121094 46.417969 0.316406 44.617188 0.121094 42.425781 Z M 0.121094 42.425781 "/>
<path style=" stroke:none;fill-rule:nonzero;fill:rgb(0%,0%,0%);fill-opacity:1;" d="M 32.542969 40.722656 L 38.441406 42.5 C 38.125 43.984375 37.46875 45.398438 36.566406 46.640625 C 35.738281 47.734375 34.640625 48.585938 33.398438 49.148438 C 32.128906 49.707031 30.519531 50 28.570312 50 C 26.207031 50 24.257812 49.660156 22.769531 48.976562 C 21.257812 48.296875 19.964844 47.078125 18.867188 45.347656 C 17.773438 43.617188 17.234375 41.402344 17.234375 38.699219 C 17.234375 35.09375 18.1875 32.320312 20.113281 30.394531 C 22.039062 28.46875 24.742188 27.496094 28.253906 27.496094 C 31.007812 27.496094 33.152344 28.054688 34.738281 29.152344 C 36.296875 30.273438 37.46875 31.976562 38.25 34.265625 L 32.300781 35.582031 C 32.152344 35.070312 31.933594 34.558594 31.640625 34.121094 C 31.277344 33.609375 30.8125 33.21875 30.253906 32.925781 C 29.691406 32.636719 29.058594 32.511719 28.425781 32.511719 C 26.886719 32.511719 25.71875 33.121094 24.914062 34.363281 C 24.304688 35.265625 23.988281 36.703125 23.988281 38.652344 C 23.988281 41.0625 24.351562 42.71875 25.085938 43.617188 C 25.816406 44.519531 26.839844 44.957031 28.179688 44.957031 C 29.472656 44.957031 30.449219 44.59375 31.105469 43.886719 C 31.765625 43.132812 32.25 42.085938 32.542969 40.722656 Z M 46.316406 27.863281 L 53.042969 27.863281 L 53.042969 35.484375 L 60.40625 35.484375 L 60.40625 27.863281 L 67.183594 27.863281 L 67.183594 49.632812 L 60.40625 49.632812 L 60.40625 40.816406 L 53.042969 40.816406 L 53.042969 49.632812 L 46.316406 49.632812 Z M 46.316406 27.863281 "/>
<path style=" stroke:none;fill-rule:nonzero;fill:rgb(0%,0%,0%);fill-opacity:1;" d="M 66.257812 38.75 C 66.257812 35.191406 67.257812 32.414062 69.230469 30.441406 C 71.207031 28.46875 73.984375 27.472656 77.519531 27.472656 C 81.152344 27.472656 83.929688 28.445312 85.90625 30.394531 C 87.878906 32.34375 88.855469 35.070312 88.855469 38.578125 C 88.855469 41.136719 88.414062 43.203125 87.5625 44.835938 C 86.734375 46.445312 85.441406 47.757812 83.855469 48.636719 C 82.222656 49.539062 80.199219 50 77.785156 50 C 75.324219 50 73.300781 49.609375 71.691406 48.832031 C 70.035156 48.003906 68.671875 46.710938 67.769531 45.128906 C 66.769531 43.425781 66.257812 41.304688 66.257812 38.75 Z M 72.984375 38.773438 C 72.984375 40.964844 73.398438 42.546875 74.203125 43.523438 C 75.007812 44.472656 76.128906 44.957031 77.542969 44.957031 C 78.980469 44.957031 80.101562 44.496094 80.90625 43.546875 C 81.710938 42.597656 82.101562 40.914062 82.101562 38.480469 C 82.101562 36.433594 81.6875 34.925781 80.859375 34 C 80.03125 33.050781 78.910156 32.585938 77.496094 32.585938 C 76.25 32.539062 75.058594 33.074219 74.226562 34.023438 C 73.398438 34.972656 72.984375 36.554688 72.984375 38.773438 Z M 95.753906 38.75 C 95.753906 35.191406 96.75 32.414062 98.726562 30.441406 C 100.699219 28.46875 103.480469 27.472656 107.015625 27.472656 C 110.648438 27.472656 113.449219 28.445312 115.398438 30.394531 C 117.351562 32.34375 118.351562 35.070312 118.351562 38.578125 C 118.351562 41.136719 117.910156 43.203125 117.058594 44.835938 C 116.230469 46.445312 114.9375 47.757812 113.351562 48.636719 C 111.71875 49.539062 109.695312 50 107.28125 50 C 104.820312 50 102.796875 49.609375 101.1875 48.832031 C 99.53125 48.003906 98.164062 46.710938 97.265625 45.128906 C 96.265625 43.425781 95.753906 41.304688 95.753906 38.75 Z M 102.480469 38.773438 C 102.480469 40.964844 102.894531 42.546875 103.699219 43.523438 C 104.503906 44.472656 105.625 44.957031 107.039062 44.957031 C 108.476562 44.957031 109.597656 44.496094 110.402344 43.546875 C 111.207031 42.597656 111.597656 40.914062 111.597656 38.480469 C 111.597656 36.433594 111.183594 34.925781 110.355469 34 C 109.523438 33.050781 108.402344 32.585938 106.988281 32.585938 C 105.746094 32.539062 104.527344 33.074219 103.722656 34.023438 C 102.894531 34.972656 102.480469 36.554688 102.480469 38.773438 Z M 102.480469 38.773438 "/>
<path style=" stroke:none;fill-rule:nonzero;fill:rgb(0%,0%,0%);fill-opacity:1;" d="M 117.644531 27.863281 L 124.371094 27.863281 L 124.371094 44.277344 L 134.878906 44.277344 L 134.878906 49.632812 L 117.617188 49.632812 L 117.617188 27.863281 Z M 117.644531 27.863281 "/>
<path style=" stroke:none;fill-rule:nonzero;fill:rgb(100%,100%,100%);fill-opacity:1;" d="M 114.890625 7.296875 C 110.695312 1.730469 101.800781 1.355469 95.027344 6.453125 C 88.253906 11.554688 86.164062 20.199219 90.363281 25.765625 C 94.558594 31.328125 103.453125 31.703125 110.226562 26.605469 C 117 21.503906 119.089844 12.859375 114.890625 7.296875 Z M 114.890625 7.296875 "/>
<g clip-path="url(#clip1)" clip-rule="nonzero">
<g clip-path="url(#clip2)" clip-rule="nonzero">
<path style=" stroke:none;fill-rule:nonzero;fill:rgb(100%,100%,100%);fill-opacity:1;" d="M 73.089844 13.769531 L 108.089844 -12.582031 L 132.3125 19.527344 L 97.308594 45.882812 Z M 73.089844 13.769531 "/>
<g clip-path="url(#clip3)" clip-rule="nonzero">
<path style=" stroke:none;fill-rule:nonzero;fill:rgb(100%,100%,100%);fill-opacity:1;" d="M 114.890625 7.296875 C 110.695312 1.730469 101.800781 1.355469 95.027344 6.453125 C 88.253906 11.554688 86.164062 20.199219 90.363281 25.765625 C 94.558594 31.328125 103.453125 31.703125 110.226562 26.605469 C 117 21.503906 119.089844 12.859375 114.890625 7.296875 Z M 114.890625 7.296875 "/>
<g clip-path="url(#clip4)" clip-rule="nonzero">
<path style=" stroke:none;fill-rule:nonzero;fill:rgb(100%,100%,100%);fill-opacity:1;" d="M 82.835938 15.914062 L 107.347656 -2.539062 L 122.558594 17.632812 L 98.046875 36.085938 Z M 82.835938 15.914062 "/>
<g clip-path="url(#clip5)" clip-rule="nonzero">
<path style="fill-rule:nonzero;fill:rgb(100%,100%,100%);fill-opacity:1;stroke-width:4;stroke-linecap:butt;stroke-linejoin:miter;stroke:rgb(0%,0%,0%);stroke-opacity:1;stroke-miterlimit:10;" d="M 483.491643 67.899079 C 483.502194 39.288262 455.288667 16.099071 420.500717 16.092285 C 385.703114 16.098309 357.494799 39.285492 357.497046 67.905953 C 357.496148 96.503962 385.709675 119.693152 420.497625 119.699938 C 455.295228 119.693915 483.503542 96.506731 483.491643 67.899079 Z M 483.491643 67.899079 " transform="matrix(0.194678,-0.146573,0.146706,0.194502,10.804357,64.957219)"/>
</g>
</g>
</g>
</g>
</g>
<g clip-path="url(#clip6)" clip-rule="nonzero">
<g clip-path="url(#clip7)" clip-rule="nonzero">
<g clip-path="url(#clip8)" clip-rule="nonzero">
<g clip-path="url(#clip9)" clip-rule="nonzero">
<g clip-path="url(#clip10)" clip-rule="nonzero">
<path style="fill:none;stroke-width:4;stroke-linecap:butt;stroke-linejoin:miter;stroke:rgb(0%,0%,0%);stroke-opacity:1;stroke-miterlimit:10;" d="M 357.802562 16.999818 L 483.707358 17.003407 L 483.696204 120.704038 L 357.791409 120.700449 Z M 357.802562 16.999818 " transform="matrix(0.19468,-0.14657,0.146702,0.194505,10.684892,65.050521)"/>
</g>
</g>
</g>
</g>
</g>
<g clip-path="url(#clip11)" clip-rule="nonzero">
<g clip-path="url(#clip12)" clip-rule="nonzero">
<g clip-path="url(#clip13)" clip-rule="nonzero">
<g clip-path="url(#clip14)" clip-rule="nonzero">
<path style="fill:none;stroke-width:4;stroke-linecap:butt;stroke-linejoin:miter;stroke:rgb(0%,0%,0%);stroke-opacity:1;stroke-miterlimit:10;" d="M 483.491643 67.899079 C 483.502194 39.288262 455.288667 16.099071 420.500717 16.092285 C 385.703114 16.098309 357.494799 39.285492 357.497046 67.905953 C 357.496148 96.503962 385.709675 119.693152 420.497625 119.699938 C 455.295228 119.693915 483.503542 96.506731 483.491643 67.899079 Z M 483.491643 67.899079 " transform="matrix(0.194678,-0.146573,0.146706,0.194502,10.804357,64.957219)"/>
<path style=" stroke:none;fill-rule:nonzero;fill:rgb(100%,100%,100%);fill-opacity:1;" d="M 82.835938 15.914062 L 107.347656 -2.539062 L 122.558594 17.632812 L 98.046875 36.085938 Z M 82.835938 15.914062 "/>
<g clip-path="url(#clip15)" clip-rule="nonzero">
<path style="fill-rule:nonzero;fill:rgb(100%,100%,100%);fill-opacity:1;stroke-width:4;stroke-linecap:butt;stroke-linejoin:miter;stroke:rgb(0%,0%,0%);stroke-opacity:1;stroke-miterlimit:10;" d="M 483.491643 67.899079 C 483.502194 39.288262 455.288667 16.099071 420.500717 16.092285 C 385.703114 16.098309 357.494799 39.285492 357.497046 67.905953 C 357.496148 96.503962 385.709675 119.693152 420.497625 119.699938 C 455.295228 119.693915 483.503542 96.506731 483.491643 67.899079 Z M 483.491643 67.899079 " transform="matrix(0.194678,-0.146573,0.146706,0.194502,10.804357,64.957219)"/>
</g>
</g>
</g>
</g>
</g>
<g clip-path="url(#clip16)" clip-rule="nonzero">
<g clip-path="url(#clip17)" clip-rule="nonzero">
<g clip-path="url(#clip18)" clip-rule="nonzero">
<g clip-path="url(#clip19)" clip-rule="nonzero">
<g clip-path="url(#clip20)" clip-rule="nonzero">
<path style="fill:none;stroke-width:4;stroke-linecap:butt;stroke-linejoin:miter;stroke:rgb(0%,0%,0%);stroke-opacity:1;stroke-miterlimit:10;" d="M 357.802562 16.999818 L 483.707358 17.003407 L 483.696204 120.704038 L 357.791409 120.700449 Z M 357.802562 16.999818 " transform="matrix(0.19468,-0.14657,0.146702,0.194505,10.684892,65.050521)"/>
</g>
</g>
</g>
</g>
</g>
<g clip-path="url(#clip21)" clip-rule="nonzero">
<g clip-path="url(#clip22)" clip-rule="nonzero">
<g clip-path="url(#clip23)" clip-rule="nonzero">
<g clip-path="url(#clip24)" clip-rule="nonzero">
<path style="fill:none;stroke-width:4;stroke-linecap:butt;stroke-linejoin:miter;stroke:rgb(0%,0%,0%);stroke-opacity:1;stroke-miterlimit:10;" d="M 330.906771 -14.198497 L 510.691096 -14.198625 L 510.703382 150.895739 L 330.896606 150.899032 Z M 330.906771 -14.198497 " transform="matrix(0.194678,-0.146573,0.146706,0.194502,10.752637,65.033183)"/>
</g>
</g>
</g>
</g>
<g clip-path="url(#clip25)" clip-rule="nonzero">
<g clip-path="url(#clip26)" clip-rule="nonzero">
<g clip-path="url(#clip27)" clip-rule="nonzero">
<path style="fill:none;stroke-width:4;stroke-linecap:butt;stroke-linejoin:miter;stroke:rgb(0%,0%,0%);stroke-opacity:1;stroke-miterlimit:10;" d="M 483.491643 67.899079 C 483.502194 39.288262 455.288667 16.099071 420.500717 16.092285 C 385.703114 16.098309 357.494799 39.285492 357.497046 67.905953 C 357.496148 96.503962 385.709675 119.693152 420.497625 119.699938 C 455.295228 119.693915 483.503542 96.506731 483.491643 67.899079 Z M 483.491643 67.899079 " transform="matrix(0.194678,-0.146573,0.146706,0.194502,10.804357,64.957219)"/>
</g>
</g>
</g>
<g clip-path="url(#clip28)" clip-rule="nonzero">
<g clip-path="url(#clip29)" clip-rule="nonzero">
<g clip-path="url(#clip30)" clip-rule="nonzero">
<path style=" stroke:none;fill-rule:nonzero;fill:rgb(0%,0%,0%);fill-opacity:1;" d="M 95.777344 14.929688 L 98.214844 13.222656 L 101.210938 17.488281 C 101.726562 18.167969 102.113281 18.898438 102.40625 19.703125 C 102.578125 20.3125 102.527344 20.96875 102.285156 21.554688 C 101.96875 22.285156 101.457031 22.894531 100.773438 23.332031 C 99.96875 23.890625 99.289062 24.207031 98.703125 24.304688 C 98.140625 24.402344 97.554688 24.304688 97.019531 24.0625 C 96.433594 23.769531 95.921875 23.355469 95.53125 22.820312 L 97.628906 20.871094 C 97.800781 21.140625 98.019531 21.382812 98.261719 21.578125 C 98.433594 21.699219 98.628906 21.773438 98.847656 21.773438 C 99.019531 21.773438 99.191406 21.699219 99.3125 21.601562 C 99.554688 21.457031 99.726562 21.164062 99.703125 20.871094 C 99.628906 20.457031 99.457031 20.042969 99.191406 19.726562 Z M 103.089844 17.632812 L 105.308594 15.878906 C 105.550781 16.171875 105.867188 16.390625 106.210938 16.511719 C 106.699219 16.660156 107.210938 16.5625 107.625 16.246094 C 107.917969 16.050781 108.160156 15.78125 108.257812 15.441406 C 108.402344 15.003906 108.160156 14.515625 107.722656 14.371094 C 107.648438 14.34375 107.574219 14.320312 107.503906 14.320312 C 107.210938 14.296875 106.699219 14.417969 105.941406 14.734375 C 104.699219 15.246094 103.722656 15.441406 102.992188 15.367188 C 102.285156 15.292969 101.628906 14.929688 101.238281 14.320312 C 100.945312 13.90625 100.796875 13.417969 100.773438 12.933594 C 100.773438 12.371094 100.921875 11.8125 101.238281 11.347656 C 101.699219 10.691406 102.261719 10.132812 102.945312 9.691406 C 103.96875 8.988281 104.871094 8.644531 105.648438 8.644531 C 106.429688 8.644531 107.160156 9.011719 107.84375 9.765625 L 105.648438 11.496094 C 105.210938 10.933594 104.382812 10.8125 103.820312 11.25 L 103.746094 11.324219 C 103.503906 11.472656 103.332031 11.691406 103.234375 11.957031 C 103.164062 12.152344 103.210938 12.371094 103.332031 12.542969 C 103.429688 12.664062 103.578125 12.761719 103.746094 12.761719 C 103.941406 12.785156 104.285156 12.6875 104.773438 12.46875 C 105.992188 11.957031 106.917969 11.664062 107.550781 11.570312 C 108.085938 11.472656 108.648438 11.519531 109.160156 11.738281 C 109.621094 11.933594 110.011719 12.273438 110.28125 12.6875 C 110.621094 13.175781 110.816406 13.761719 110.839844 14.371094 C 110.867188 15.003906 110.695312 15.609375 110.355469 16.148438 C 109.914062 16.804688 109.355469 17.363281 108.695312 17.804688 C 107.355469 18.730469 106.257812 19.117188 105.382812 18.972656 C 104.429688 18.824219 103.652344 18.339844 103.089844 17.632812 Z M 103.089844 17.632812 "/>
</g>
</g>
</g>
</g>
</svg>
